<?xml version="1.0" encoding="UTF-8"?>
<svg width="118" height="90.82" fill="none" version="1.1" viewBox="0 0 118 90.82" xmlns="http://www.w3.org/2000/svg" xmlns:cc="http://creativecommons.org/ns#" xmlns:dc="http://purl.org/dc/elements/1.1/" xmlns:rdf="http://www.w3.org/1999/02/22-rdf-syntax-ns#">
 <metadata>
  <rdf:RDF>
   <cc:Work rdf:about="">
    <dc:format>image/svg+xml</dc:format>
    <dc:type rdf:resource="http://purl.org/dc/dcmitype/StillImage"/>
    <dc:title/>
   </cc:Work>
  </rdf:RDF>
 </metadata>
 <circle cx="39.775" cy="51.045" r="39.775" fill="#f90" stroke-width=".66292"/>
 <g clip-rule="evenodd" fill="#000" fill-rule="evenodd" stroke-width=".66292">
  <path d="m59.087 10.269c0.17832-0.31065 0.57369-0.41724 0.88294-0.23812l37.819 21.904c0.30892 0.17912 0.41499 0.57614 0.23666 0.88679s-0.57343 0.41724-0.88301 0.23812l-37.819-21.904c-0.30932-0.17912-0.41545-0.57614-0.23706-0.88679z"/>
  <path d="m73.917 1.2429c1.4107-0.81423 3.0103-1.2429 4.6391-1.2429s3.2284 0.42865 4.6391 1.2429c6.63e-4 2.585e-4 6.63e-4 5.171e-4 0.0013 7.756e-4l30.163 17.239c1.4094 0.81394 2.5801 1.9843 3.3948 3.3936 0.81407 1.4094 1.2436 3.0081 1.2456 4.636v34.48c-2e-3 1.6279-0.43156 3.2266-1.2456 4.6359-0.81473 1.4097-1.9854 2.5798-3.3948 3.3938l-3e-3 0.0013-30.16 17.238s-6.63e-4 0-6.63e-4 6.62e-4c-1.4107 0.81407-3.011 1.243-4.6398 1.243s-3.2291-0.42891-4.6398-1.243c0-6.62e-4 -6.63e-4 -6.62e-4 -6.63e-4 -6.62e-4l-30.16-17.238-0.0026-0.0013c-1.4091-0.81407-2.5798-1.9841-3.3943-3.3938-0.81446-1.4093-1.2441-3.0081-1.2458-4.6359v-34.48c0.0017-1.6279 0.4313-3.2266 1.2458-4.636 0.81453-1.4093 1.9852-2.5796 3.3947-3.3936l0.0026-0.0015 30.16-17.238c6.63e-4 -2.585e-4 6.63e-4 -5.171e-4 0.0013-7.756e-4zm4.6391 0.08323c-1.3961 0-2.7684 0.36765-3.9775 1.066l-0.002652 0.0014714-30.16 17.238c-4.64e-4 2.65e-4 -9.28e-4 5.3e-4 -0.0013 7.29e-4 -1.2075 0.69766-2.2105 1.7005-2.9084 2.908-0.69812 1.2079-1.0664 2.5782-1.0678 3.9734v34.478c0.0015 1.3952 0.36971 2.7654 1.0678 3.9734 0.69779 1.2074 1.7007 2.2105 2.9082 2.9079 4.64e-4 0 9.94e-4 6.63e-4 0.0015 6.63e-4l30.163 17.24c1.2092 0.69806 2.5814 1.066 3.9775 1.066 1.3961 0 2.7684-0.36792 3.9775-1.066l0.0027-2e-3 30.16-17.238c6.6e-4 0 1e-3 -6.63e-4 1e-3 -6.63e-4 1.2078-0.69739 2.2108-1.7005 2.9082-2.9079 0.69806-1.208 1.0666-2.5784 1.068-3.9738v-34.477c-1e-3 -1.3953-0.36991-2.7657-1.068-3.9738-0.69739-1.2075-1.7004-2.2104-2.9082-2.908-6.7e-4 -1.99e-4 -6.7e-4 -4.64e-4 -1e-3 -7.29e-4l-30.16-17.238-0.0027-0.00147c-1.2091-0.69834-2.5814-1.066-3.9775-1.066z"/>
  <path d="m40.526 22.2c0.18098-0.30938 0.58125-0.41512 0.89408-0.23613l36.804 21.057 36.804-21.057c0.3129-0.17899 0.7133-0.07325 0.89428 0.23613 0.18097 0.30938 0.0742 0.70535-0.23865 0.88434l-37.132 21.245c-0.20285 0.11594-0.45211 0.11594-0.65497 0l-37.132-21.245c-0.31283-0.17899-0.41976-0.57495-0.23878-0.88434z"/>
  <path d="m78.225 43.09c0.36593 0 0.66292 0.29009 0.66292 0.648v42.457c0 0.35732-0.29699 0.64768-0.66292 0.64768-0.36593 0-0.66292-0.29036-0.66292-0.64768v-42.457c0-0.35791 0.29699-0.648 0.66292-0.648z"/>
 </g>
</svg>
