<?xml version="1.0" encoding="UTF-8"?>
<svg width="65" height="55.871" fill="none" version="1.1" viewBox="0 0 65 55.871" xmlns="http://www.w3.org/2000/svg" xmlns:cc="http://creativecommons.org/ns#" xmlns:dc="http://purl.org/dc/elements/1.1/" xmlns:rdf="http://www.w3.org/1999/02/22-rdf-syntax-ns#">
 <metadata>
  <rdf:RDF>
   <cc:Work rdf:about="">
    <dc:format>image/svg+xml</dc:format>
    <dc:type rdf:resource="http://purl.org/dc/dcmitype/StillImage"/>
    <dc:title/>
   </cc:Work>
  </rdf:RDF>
 </metadata>
 <g transform="matrix(.625 0 0 .625 8.4489e-5 -1.875e-5)" stroke-width=".58427">
  <circle cx="35.056" cy="54.337" r="34.764" fill="#f90" stroke="#f90"/>
  <path d="m66.607 27.461c-5.1632 0-9.3483 4.1854-9.3483 9.3483 0 5.163 4.1851 9.3483 9.3483 9.3483s9.3483-4.1854 9.3483-9.3483c0-5.163-4.1851-9.3483-9.3483-9.3483zm-10.517 9.3483c0-5.8083 4.7086-10.517 10.517-10.517 5.8082 0 10.517 4.7086 10.517 10.517s-4.7086 10.517-10.517 10.517c-5.8082 0-10.517-4.7086-10.517-10.517z" clip-rule="evenodd" fill="#000" fill-rule="evenodd"/>
  <path d="m66.899 1.1716c-1.6056 0-3.1451 0.63777-4.2804 1.773-1.1352 1.1352-1.7733 2.6749-1.7733 4.2804v0.56669c-0.0047 1.1824-0.35465 2.3377-1.0079 3.3235-0.65263 0.9859-1.5796 1.7594-2.6665 2.2251-0.07292 0.03126-0.15144 0.04738-0.23073 0.04738h-0.14531c-1.0777 0.44901-2.2631 0.57767-3.4135 0.36902-1.192-0.21612-2.292-0.78438-3.158-1.6315l-0.20378-0.20378c-0.56218-0.56283-1.2301-1.0096-1.9649-1.3142-0.7349-0.30458-1.5225-0.4614-2.3181-0.4614-0.79548 0-1.5832 0.15682-2.318 0.4614-0.73489 0.30464-1.4025 0.75114-1.9647 1.314l-4.67e-4 4.68e-4c-0.56283 0.56218-1.0093 1.2298-1.314 1.9647-0.30464 0.73484-0.4614 1.5225-0.4614 2.3181 0 0.79548 0.15676 1.5832 0.4614 2.318 0.30464 0.7349 0.75114 1.4025 1.314 1.9647l0.20397 0.20397c0.84713 0.86606 1.4154 1.966 1.6315 3.158 0.21501 1.186 0.07169 2.4089-0.4115 3.5129-0.42114 1.1345-1.1723 2.1171-2.1568 2.8213-0.98952 0.70773-2.1691 1.1014-3.3854 1.1299l-0.01373 1.75e-4h-0.29874c-1.6055 0-3.1451 0.63779-4.2804 1.773-1.1352 1.1352-1.773 2.6749-1.773 4.2804s0.63773 3.1452 1.773 4.2804c1.1352 1.1352 2.6749 1.773 4.2804 1.773h0.56668c1.1824 0.0047 2.3377 0.35506 3.3235 1.0079 0.98502 0.65234 1.758 1.5782 2.2239 2.6638 0.4881 1.1076 0.63358 2.3359 0.41764 3.5269-0.21612 1.192-0.78438 2.292-1.6315 3.158l-0.0046 0.0047-0.19918 0.19912c-0.56283 0.56218-1.0096 1.2301-1.3142 1.9649-0.30458 0.7349-0.4614 1.5225-0.4614 2.3181 0 0.79572 0.15682 1.5833 0.4614 2.3183 0.30464 0.73443 0.75114 1.4022 1.314 1.9643l4.68e-4 5.85e-4c0.56218 0.56265 1.2298 1.009 1.9647 1.314 0.73484 0.3044 1.5225 0.46157 2.3181 0.46157 0.79548 0 1.5832-0.15717 2.318-0.46157 0.7349-0.30499 1.4025-0.75137 1.9647-1.314l0.20397-0.20391c0.86606-0.84719 1.966-1.4157 3.158-1.6319 1.186-0.21501 2.4089-0.07128 3.5129 0.41191 1.1345 0.42126 2.1173 1.172 2.8214 2.1565 0.70755 0.98975 1.1013 2.1694 1.13 3.3853v0.31258c0 1.6056 0.63802 3.1451 1.7733 4.2804 1.1347 1.1352 2.6748 1.7733 4.2804 1.7733 1.605 0 3.1451-0.63802 4.2804-1.7733 1.1347-1.1352 1.7727-2.6748 1.7727-4.2804v-0.5667c0.0047-1.182 0.35524-2.3377 1.0079-3.3233 0.65263-0.98508 1.5781-1.7581 2.6637-2.2237 1.1078-0.48845 2.3359-0.63393 3.5272-0.41775 1.1919 0.21618 2.2921 0.78409 3.158 1.6313l0.20394 0.20394c0.56207 0.56265 1.2299 1.0096 1.9649 1.314 0.73443 0.30499 1.5226 0.46157 2.3178 0.46157 0.79578 0 1.5834-0.15658 2.3184-0.46157 0.73443-0.3044 1.4022-0.75079 1.9643-1.314h5.84e-4c0.56265-0.56269 1.009-1.2299 1.314-1.9649 0.3044-0.73501 0.46157-1.5226 0.46157-2.3181s-0.15717-1.5832-0.46157-2.318c-0.30499-0.7349-0.75137-1.4025-1.314-1.9647l-0.20391-0.20397c-0.84719-0.86606-1.4157-1.966-1.6319-3.158-0.2156-1.1911-0.07011-2.4195 0.41775-3.5272 0.46625-1.0855 1.2392-2.0112 2.2237-2.6635 0.98625-0.65286 2.1413-1.0032 3.3239-1.008h0.30086c1.6056 0 3.1451-0.63773 4.2804-1.773 1.1352-1.1352 1.7733-2.6749 1.7733-4.2804s-0.63802-3.1451-1.7733-4.2804c-1.1352-1.1352-2.6748-1.773-4.2804-1.773h-0.5667c-1.182-0.0047-2.3377-0.35512-3.3233-1.008-0.98566-0.65292-1.7592-1.5798-2.2249-2.6667-0.03155-0.07292-0.04733-0.15144-0.04733-0.23073v-0.14531c-0.4493-1.0777-0.57784-2.2631-0.36926-3.4135 0.21618-1.192 0.78409-2.292 1.6313-3.158l0.0047-0.0046 0.19924-0.19918c0.56265-0.56218 1.0096-1.2301 1.314-1.9649 0.30499-0.7349 0.46157-1.5225 0.46157-2.3181 0-0.79548-0.15658-1.5832-0.46157-2.318-0.3044-0.7349-0.75079-1.4025-1.314-1.9647v-4.67e-4c-0.56267-0.56284-1.2299-1.0093-1.9649-1.314s-1.5226-0.4614-2.3178-0.4614c-0.79578 0-1.5834 0.15676-2.3184 0.4614s-1.4022 0.75114-1.9649 1.314l-0.20391 0.20397c-0.86589 0.84713-1.9661 1.4154-3.158 1.6315-1.1907 0.21595-2.4189 0.07046-3.5267-0.41764-1.0856-0.46596-2.0116-1.2389-2.6637-2.2239-0.65321-0.98584-1.0032-2.1411-1.0079-3.3236v-0.30108c0-1.6055-0.63802-3.1451-1.7733-4.2804-1.1352-1.1352-2.6748-1.773-4.2804-1.773zm-5.1089 0.94453c1.3549-1.3549 3.1924-2.1161 5.1089-2.1161 1.9164 0 3.7539 0.7612 5.1089 2.1161 1.3549 1.3549 2.1162 3.1926 2.1162 5.1088v0.29751c0.0041 0.95359 0.28629 1.8852 0.8133 2.6802 0.52643 0.79537 1.2743 1.4194 2.1513 1.7952l0.0058 0.0025c0.89393 0.39462 1.886 0.51235 2.8477 0.338 0.96054-0.17417 1.8469-0.63189 2.5451-1.3141 0.0012-7.01e-4 0.0018-0.0014 0.0023-0.0021l0.19456-0.19444c0.67074-0.67162 1.4677-1.2047 2.3447-1.5682 0.87699-0.36359 1.8171-0.55073 2.7671-0.55073 0.94944 0 1.8895 0.18714 2.7665 0.55073 0.87699 0.36353 1.6733 0.89627 2.3447 1.5678 0.67133 0.67103 1.2042 1.4679 1.5682 2.345 0.36342 0.8771 0.55038 1.8173 0.55038 2.7667 0 0.9495-0.18697 1.8896-0.55038 2.7668-0.364 0.8771-0.89685 1.6739-1.5682 2.3449l-0.19456 0.19439c-5.84e-4 7.59e-4 -0.0018 0.0015-0.0023 0.0023-0.68243 0.69832-1.1399 1.5848-1.314 2.5455-0.17411 0.96165-0.05667 1.9535 0.33771 2.8477 0.0333 0.07449 0.05025 0.15506 0.05025 0.23651v0.1418c0.37978 0.83066 0.98508 1.5392 1.7476 2.0444 0.79519 0.52654 1.7265 0.80916 2.68 0.81319h0.56324c1.9164 0 3.7539 0.76119 5.1089 2.1162 1.3549 1.3549 2.1162 3.1926 2.1162 5.1088s-0.7613 3.7539-2.1162 5.1088c-1.3549 1.355-3.1925 2.1162-5.1089 2.1162h-0.29742c-0.95353 4e-3 -1.8854 0.28664-2.68 0.81319-0.79578 0.52672-1.4198 1.2745-1.7955 2.1513l-0.0023 0.0058c-0.39438 0.89417-0.5124 1.886-0.33829 2.8477 0.1747 0.9606 0.63218 1.8471 1.314 2.5454 0.0012 8.18e-4 0.0018 0.0016 0.0023 0.0024l0.19456 0.19433c0.67191 0.67098 1.2048 1.468 1.5682 2.345 0.36342 0.87711 0.55097 1.8173 0.55097 2.7667 0 0.94973-0.18755 1.8898-0.55097 2.7668-0.36342 0.87699-0.89627 1.6739-1.5682 2.3447-0.67074 0.67133-1.4677 1.2042-2.3447 1.5682-0.87699 0.36342-1.8171 0.55038-2.7665 0.55038-0.94944 0-1.8895-0.18697-2.7665-0.55038-0.87699-0.364-1.6739-0.89685-2.3447-1.5682l-0.19686-0.19686c-0.69879-0.68243-1.5851-1.1399-2.5457-1.314-0.96171-0.17411-1.9538-0.05667-2.8477 0.33771l-0.0058 0.0029c-0.8764 0.37569-1.6243 0.99969-2.1513 1.7949-0.52643 0.79519-0.80921 1.7265-0.8133 2.68v0.56327c0 1.9164-0.7613 3.7539-2.1162 5.1089-1.3549 1.3549-3.1924 2.1162-5.1083 2.1162-1.9164 0-3.7539-0.7613-5.1089-2.1162-1.3549-1.3549-2.1162-3.1924-2.1162-5.1089v-0.29155c-0.02454-0.97924-0.3418-1.9281-0.91146-2.7244-0.57083-0.7987-1.3691-1.4063-2.2902-1.7452-0.0063-0.0023-0.01244-0.0047-0.01858-0.0076-0.0053-0.0018-0.01052-0.0041-0.01578-0.0064-0.89411-0.39438-1.886-0.5124-2.8477-0.33829-0.96066 0.1747-1.8472 0.63218-2.5455 1.3146-7.6e-4 5.84e-4 -0.0015 0.0012-0.0023 0.0018l-0.19433 0.19456c-0.67103 0.67191-1.4679 1.2048-2.345 1.5682-0.87711 0.36342-1.8173 0.55097-2.7667 0.55097-0.9495 0-1.8896-0.18755-2.7668-0.55097-0.8771-0.36342-1.6739-0.89627-2.3449-1.5682-0.67156-0.67074-1.2043-1.4677-1.5678-2.3447-0.36359-0.87699-0.55073-1.8171-0.55073-2.7665 0-0.9495 0.18714-1.8896 0.55073-2.7668 0.36359-0.87699 0.89639-1.6738 1.5681-2.3447 5.8e-5 -1.16e-4 -1.17e-4 5.9e-5 0 0l0.19682-0.19682c0.68225-0.69832 1.1399-1.5849 1.3141-2.5455 0.1744-0.96165 0.05667-1.9535-0.33794-2.8477l-0.0026-0.0057c-0.3758-0.87687-0.99974-1.6247-1.7951-2.1514-0.79502-0.52648-1.7266-0.80916-2.6802-0.81319h-0.56311c-1.9162 0-3.7539-0.76119-5.1088-2.1161-1.355-1.355-2.1162-3.1927-2.1162-5.1089s0.76119-3.7539 2.1162-5.1088c1.3549-1.3549 3.1926-2.1162 5.1088-2.1162h0.29172c0.97889-0.02419 1.928-0.34168 2.7246-0.9114 0.79835-0.57095 1.4064-1.3689 1.7452-2.2901 0.0043-0.01157 0.0089-0.02302 0.01385-0.03436 0.39468-0.89411 0.51235-1.886 0.338-2.8477-0.17417-0.96066-0.63183-1.8472-1.3141-2.5455l-0.19655-0.1968c-0.67174-0.67103-1.2046-1.4679-1.5682-2.345s-0.55073-1.8173-0.55073-2.7667c0-0.9495 0.18714-1.8896 0.55073-2.7668 0.36359-0.8771 0.8965-1.6739 1.5682-2.3449 0.67092-0.67156 1.4676-1.2043 2.3445-1.5678 0.8771-0.36359 1.8173-0.55073 2.7667-0.55073 0.9495 0 1.8896 0.18714 2.7668 0.55073 0.87699 0.36359 1.6738 0.89639 2.3447 1.5681 1.16e-4 5.9e-5 -5.9e-5 -1.17e-4 0 0l0.1969 0.19684c0.69832 0.68219 1.5848 1.1399 2.5455 1.314 0.96165 0.1744 1.9535 0.05667 2.8477-0.33794 0.07449-0.03289 0.15506-0.0499 0.23651-0.0499h0.1418c0.83066-0.37978 1.5392-0.98496 2.0441-1.7478 0.52701-0.79502 0.80921-1.7266 0.8133-2.6802v-0.56306c0-1.9162 0.7613-3.7539 2.1162-5.1088z" clip-rule="evenodd" fill="#000" fill-rule="evenodd"/>
 </g>
</svg>
