<?xml version="1.0" encoding="UTF-8"?>
<svg width="65" height="50.028" fill="none" version="1.1" viewBox="0 0 65 50.028" xmlns="http://www.w3.org/2000/svg" xmlns:cc="http://creativecommons.org/ns#" xmlns:dc="http://purl.org/dc/elements/1.1/" xmlns:rdf="http://www.w3.org/1999/02/22-rdf-syntax-ns#">
 <metadata>
  <rdf:RDF>
   <cc:Work rdf:about="">
    <dc:format>image/svg+xml</dc:format>
    <dc:type rdf:resource="http://purl.org/dc/dcmitype/StillImage"/>
    <dc:title/>
   </cc:Work>
  </rdf:RDF>
 </metadata>
 <circle cx="21.91" cy="28.118" r="21.91" fill="#f90" stroke-width=".36518"/>
 <g transform="scale(.625)" clip-rule="evenodd" fill="#000" fill-rule="evenodd" stroke-width=".58427">
  <path d="m52.076 9.0505c0.15717-0.27379 0.50563-0.36774 0.77819-0.20987l33.332 19.305c0.27227 0.15787 0.36575 0.50779 0.20858 0.78158s-0.50539 0.36774-0.77825 0.20987l-33.332-19.305c-0.27262-0.15787-0.36616-0.50779-0.20893-0.78158z"/>
  <path d="m65.147 1.0954c1.2433-0.71763 2.6532-1.0954 4.0887-1.0954s2.8454 0.37779 4.0887 1.0954c5.84e-4 2.278e-4 5.84e-4 4.557e-4 0.0012 6.836e-4l26.584 15.194c1.2422 0.71737 2.274 1.7488 2.992 2.9909 0.71748 1.2422 1.0961 2.6512 1.0978 4.086v30.389c-2e-3 1.4347-0.38036 2.8438-1.0978 4.0859-0.71807 1.2424-1.7499 2.2737-2.992 2.9912l-0.0023 0.0012-26.582 15.193s-5.85e-4 0-5.85e-4 5.84e-4c-1.2433 0.71748-2.6538 1.0955-4.0893 1.0955s-2.846-0.37802-4.0893-1.0955c0-5.84e-4 -5.85e-4 -5.84e-4 -5.85e-4 -5.84e-4l-26.582-15.193-0.0023-0.0012c-1.2423-0.71748-2.2741-1.7487-2.9919-2.9912-0.71783-1.2421-1.0965-2.6512-1.098-4.0859v-30.389c0.0015-1.4347 0.38013-2.8438 1.098-4.086 0.71789-1.2421 1.7497-2.2736 2.9919-2.9909l0.0023-0.0013 26.582-15.193c5.85e-4 -2.279e-4 5.85e-4 -4.558e-4 0.0012-6.836e-4zm4.0887 0.073355c-1.2305 0-2.4399 0.32403-3.5056 0.93952l-0.0023 0.0013-26.582 15.193c-4.09e-4 2.33e-4 -8.18e-4 4.67e-4 -0.0012 6.42e-4 -1.0642 0.61489-1.9482 1.4988-2.5633 2.563-0.61529 1.0646-0.93986 2.2723-0.94114 3.502v30.388c0.0013 1.2297 0.32585 2.4373 0.94114 3.502 0.615 1.0642 1.4989 1.9482 2.5631 2.5629 4.09e-4 0 8.76e-4 5.85e-4 0.0013 5.85e-4l26.584 15.195c1.0657 0.61524 2.2751 0.9395 3.5056 0.9395s2.4399-0.32427 3.5056-0.9395l0.0023-0.0018 26.582-15.193c5.84e-4 0 0.0012-5.85e-4 0.0012-5.85e-4 1.0645-0.61465 1.9485-1.4987 2.5632-2.5629 0.61524-1.0647 0.94009-2.2725 0.94126-3.5023v-30.387c-1e-3 -1.2298-0.32602-2.4376-0.94126-3.5023-0.61465-1.0642-1.4986-1.9481-2.5632-2.563-5.84e-4 -1.75e-4 -5.84e-4 -4.09e-4 -0.0012-6.42e-4l-26.582-15.193-0.0023-0.0013c-1.0657-0.61548-2.2752-0.93951-3.5057-0.93951z"/>
  <path d="m35.718 19.566c0.15951-0.27268 0.51229-0.36587 0.788-0.20812l32.438 18.559 32.437-18.559c0.27578-0.15775 0.62868-0.06456 0.78818 0.20812 0.15951 0.27268 0.0654 0.62166-0.21033 0.77942l-32.727 18.724c-0.17879 0.10219-0.39847 0.10219-0.57726 0l-32.727-18.724c-0.27572-0.15775-0.36996-0.50674-0.21045-0.77942z"/>
  <path d="m68.944 37.978c0.32252 0 0.58427 0.25568 0.58427 0.57112v37.42c0 0.31492-0.26175 0.57083-0.58427 0.57083s-0.58427-0.25591-0.58427-0.57083v-37.42c0-0.31545 0.26175-0.57112 0.58427-0.57112z"/>
 </g>
</svg>
