<?xml version="1.0" encoding="UTF-8"?>
<svg width="118" height="101.43" fill="none" version="1.1" viewBox="0 0 118 101.43" xmlns="http://www.w3.org/2000/svg" xmlns:cc="http://creativecommons.org/ns#" xmlns:dc="http://purl.org/dc/elements/1.1/" xmlns:rdf="http://www.w3.org/1999/02/22-rdf-syntax-ns#">
 <metadata>
  <rdf:RDF>
   <cc:Work rdf:about="">
    <dc:format>image/svg+xml</dc:format>
    <dc:type rdf:resource="http://purl.org/dc/dcmitype/StillImage"/>
    <dc:title/>
   </cc:Work>
  </rdf:RDF>
 </metadata>
 <g stroke-width=".66292">
  <circle cx="39.775" cy="61.652" r="39.444" fill="#f90" stroke="#f90"/>
  <path d="m75.573 31.157c-5.8582 0-10.607 4.7488-10.607 10.607s4.7485 10.607 10.607 10.607 10.607-4.7488 10.607-10.607-4.7485-10.607-10.607-10.607zm-11.933 10.607c0-6.5902 5.3425-11.933 11.933-11.933s11.933 5.3424 11.933 11.933-5.3425 11.933-11.933 11.933-11.933-5.3424-11.933-11.933z" clip-rule="evenodd" fill="#000" fill-rule="evenodd"/>
  <path d="m75.904 1.3293c-1.8217 0-3.5685 0.72362-4.8566 2.0117-1.2881 1.288-2.012 3.035-2.012 4.8566v0.64297c-0.0053 1.3416-0.40239 2.6523-1.1435 3.7709-0.74048 1.1186-1.7923 1.9962-3.0254 2.5247-0.08273 0.03547-0.17183 0.05376-0.26179 0.05376h-0.16487c-1.2228 0.50946-2.5677 0.65543-3.8731 0.4187-1.3525-0.24521-2.6005-0.88997-3.5831-1.8511l-0.23119-0.23119c-0.63786-0.63859-1.3956-1.1455-2.2294-1.4911-0.83382-0.34558-1.7275-0.52351-2.6301-0.52351-0.90257 0-1.7963 0.17793-2.6301 0.52351-0.83382 0.34565-1.5913 0.85225-2.2291 1.4908l-5.3e-4 5.3e-4c-0.63859 0.63786-1.1452 1.3954-1.4908 2.2291s-0.52351 1.7275-0.52351 2.6301c0 0.90257 0.17786 1.7963 0.52351 2.6301 0.34565 0.83382 0.85225 1.5913 1.4908 2.2291l0.23143 0.23142c0.96117 0.98265 1.6059 2.2307 1.8511 3.5832 0.24396 1.3456 0.08134 2.7332-0.4669 3.9857-0.47783 1.2872-1.3301 2.4021-2.4472 3.2011-1.1227 0.803-2.4611 1.2497-3.8411 1.282l-0.01558 1.99e-4h-0.33895c-1.8216 0-3.5685 0.72364-4.8566 2.0116-1.2881 1.2881-2.0116 3.035-2.0116 4.8566 0 1.8216 0.72358 3.5686 2.0116 4.8566 1.2881 1.2881 3.035 2.0117 4.8566 2.0117h0.64297c1.3416 0.0053 2.6523 0.40286 3.7709 1.1436 1.1176 0.74015 1.9946 1.7907 2.5233 3.0224 0.5538 1.2567 0.71887 2.6504 0.47386 4.0017-0.24521 1.3525-0.88997 2.6005-1.8511 3.5831l-0.0052 0.0053-0.22599 0.22592c-0.63859 0.63786-1.1455 1.3956-1.4911 2.2294-0.34558 0.83382-0.52351 1.7275-0.52351 2.6301 0 0.90283 0.17793 1.7965 0.52351 2.6304 0.34565 0.83329 0.85225 1.591 1.4908 2.2287l5.3e-4 6.63e-4c0.63786 0.63839 1.3953 1.1449 2.2291 1.4909 0.83376 0.34538 1.7275 0.52371 2.6301 0.52371 0.90257 0 1.7963-0.17833 2.6301-0.52371 0.83382-0.34604 1.5913-0.85252 2.2291-1.4909l0.23143-0.23136c0.98265-0.96124 2.2307-1.6063 3.5832-1.8515 1.3456-0.24396 2.7332-0.08088 3.9857 0.46736 1.2872 0.47797 2.4024 1.3298 3.2012 2.4468 0.8028 1.123 1.2496 2.4614 1.2821 3.841v0.35466c0 1.8217 0.72391 3.5685 2.012 4.8566 1.2874 1.2881 3.0349 2.012 4.8566 2.012 1.821 0 3.5685-0.72391 4.8566-2.012 1.2874-1.2881 2.0113-3.0349 2.0113-4.8566v-0.64308c0.0053-1.3411 0.40306-2.6523 1.1435-3.7707 0.74048-1.1177 1.7906-1.9947 3.0223-2.5231 1.2569-0.5542 2.6504-0.71927 4.0021-0.47399 1.3524 0.24528 2.6006 0.88964 3.5831 1.8509l0.23136 0.23136c0.63773 0.63839 1.3954 1.1455 2.2294 1.4909 0.83329 0.34604 1.7276 0.52371 2.6298 0.52371 0.90289 0 1.7965-0.17766 2.6305-0.52371 0.83329-0.34538 1.591-0.85185 2.2287-1.4909h6.6e-4c0.6384-0.63839 1.1449-1.3954 1.4909-2.2294 0.34538-0.83396 0.52371-1.7276 0.52371-2.6301 0-0.90257-0.17833-1.7963-0.52371-2.6301-0.34604-0.83382-0.85251-1.5913-1.4909-2.2291l-0.23136-0.23143c-0.96123-0.98265-1.6063-2.2307-1.8515-3.5832-0.24461-1.3514-0.0795-2.7452 0.47399-4.002 0.52901-1.2316 1.4061-2.282 2.5231-3.0221 1.119-0.74075 2.4296-1.1383 3.7714-1.1437h0.34175c1.8217 0 3.5685-0.72358 4.8566-2.0116 1.288-1.2881 2.012-3.035 2.012-4.8566 0-1.8216-0.72391-3.5685-2.012-4.8566-1.2881-1.2881-3.0349-2.0116-4.8566-2.0116h-0.64338c-1.3411-0.0054-2.6524-0.40292-3.7707-1.1437-1.1183-0.74082-1.996-1.7925-2.5244-3.0256-0.0358-0.08273-0.0537-0.17183-0.0537-0.26179v-0.16487c-0.50978-1.2228-0.65563-2.5677-0.41896-3.8731 0.24528-1.3525 0.88964-2.6005 1.8509-3.5831l5e-3 -0.0052 0.22605-0.22599c0.6384-0.63786 1.1455-1.3956 1.4909-2.2294 0.34605-0.83382 0.52371-1.7275 0.52371-2.6301 0-0.90257-0.17766-1.7963-0.52371-2.6301-0.34538-0.83382-0.85185-1.5913-1.4909-2.2291v-5.31e-4c-0.63839-0.63859-1.3954-1.1452-2.2294-1.4908-0.83396-0.34565-1.7276-0.52351-2.6298-0.52351-0.9029 0-1.7965 0.17786-2.6305 0.52351-0.83396 0.34565-1.591 0.85225-2.2294 1.4908l-0.23136 0.23143c-0.98245 0.96117-2.2307 1.6059-3.5831 1.8511-1.351 0.24502-2.7445 0.07995-4.0014-0.47386-1.2317-0.52868-2.2824-1.4057-3.0223-2.5233-0.74115-1.1185-1.1382-2.4293-1.1435-3.771v-0.3416c0-1.8216-0.72391-3.5685-2.012-4.8566-1.2878-1.288-3.0345-2.0116-4.8563-2.0116zm-5.7966 1.0717c1.5373-1.5373 3.6222-2.401 5.7966-2.401s4.2593 0.86367 5.7966 2.401c1.5373 1.5373 2.4011 3.6224 2.4011 5.7965v0.3363 0.00126c0.0046 1.082 0.32483 2.139 0.92279 3.041 0.59729 0.90244 1.4458 1.6104 2.4409 2.0368l0.0066 0.0028c1.0143 0.44774 2.1399 0.58132 3.2311 0.3835 1.0898-0.19762 2.0955-0.71695 2.8877-1.491 0.0013-7.96e-4 2e-3 -0.0016 0.0027-0.0024l0.22075-0.22062v0c0.76103-0.76203 1.6653-1.3669 2.6603-1.7793 0.99504-0.41254 2.0617-0.62487 3.1396-0.62487 1.0773 0 2.1439 0.21233 3.1389 0.62487 0.99505 0.41247 1.8986 1.0169 2.6603 1.7788 0.76169 0.76136 1.3663 1.6655 1.7793 2.6606 0.41233 0.99518 0.62447 2.0619 0.62447 3.1391 0 1.0773-0.21214 2.144-0.62447 3.1392-0.413 0.99518-1.0176 1.8993-1.7793 2.6606l-0.22076 0.22055c-6.6e-4 8.62e-4 -2e-3 0.0017-3e-3 0.0026-0.77429 0.79232-1.2934 1.7982-1.4909 2.8881-0.19755 1.0911-0.0643 2.2165 0.38317 3.231 0.0378 0.08452 0.057 0.17594 0.057 0.26835v0.16089c0.4309 0.94248 1.1177 1.7464 1.9828 2.3196 0.90223 0.59742 1.9589 0.91808 3.0408 0.92265h0.63905c2.1744 0 4.2593 0.86365 5.7966 2.401 1.5373 1.5373 2.4011 3.6224 2.4011 5.7965 0 2.1741-0.86379 4.2592-2.4011 5.7965-1.5373 1.5374-3.6222 2.401-5.7966 2.401h-0.3361-1e-3c-1.0819 0.0046-2.1392 0.32523-3.0408 0.92265-0.9029 0.59762-1.6109 1.4461-2.0372 2.4409l-3e-3 0.0066c-0.44747 1.0145-0.58138 2.1399-0.38383 3.231 0.19821 1.0899 0.71728 2.0957 1.4909 2.888 1e-3 9.28e-4 2e-3 0.0018 3e-3 0.0027l0.22075 0.22049v0c0.76236 0.7613 1.367 1.6656 1.7793 2.6606 0.41234 0.99518 0.62514 2.0619 0.62514 3.1391 0 1.0776-0.2128 2.1442-0.62514 3.1393-0.41233 0.99504-1.0169 1.8993-1.7793 2.6603-0.76103 0.7617-1.6653 1.3663-2.6603 1.7793-0.99505 0.41234-2.0617 0.62447-3.1389 0.62447-1.0772 0-2.1439-0.21214-3.1389-0.62447-0.99504-0.413-1.8993-1.0176-2.6603-1.7793l-0.22345-0.22345c-0.79285-0.77429-1.7985-1.2934-2.8883-1.4909-1.0912-0.19755-2.2168-0.0643-3.2311 0.38317l-0.0066 0.0033c-0.99438 0.42626-1.8429 1.1343-2.4409 2.0365-0.59729 0.90224-0.91815 1.9589-0.92279 3.0408v0.0013 0.63773c0 2.1744-0.86379 4.2593-2.4011 5.7966-1.5373 1.5373-3.6222 2.4011-5.7959 2.4011-2.1744 0-4.2593-0.86379-5.7966-2.4011-1.5373-1.5373-2.4011-3.6222-2.4011-5.7966v-0.3308c-0.02784-1.1111-0.38781-2.1876-1.0342-3.0912-0.64767-0.90621-1.5534-1.5957-2.5985-1.9801-0.0071-0.0027-0.01412-0.0053-0.02108-0.0086-6e-3 -2e-3 -0.01193-0.0046-0.0179-0.0073-1.0145-0.44747-2.1399-0.58138-3.231-0.38383-1.09 0.19821-2.0958 0.71728-2.8882 1.4916-8.62e-4 6.63e-4 -0.0017 0.0013-0.0026 2e-3l-0.22049 0.22075c-0.76136 0.76236-1.6655 1.3669-2.6606 1.7793-0.99518 0.41234-2.0619 0.62514-3.1391 0.62514-1.0773 0-2.144-0.2128-3.1392-0.62514-0.99518-0.41234-1.8993-1.0169-2.6606-1.7793-0.76196-0.76103-1.3664-1.6653-1.7789-2.6603-0.41254-0.99504-0.62487-2.0617-0.62487-3.1389 0-1.0773 0.21233-2.144 0.62487-3.1392 0.41254-0.99504 1.0171-1.8991 1.7791-2.6603 6.6e-5 -1.33e-4 -1.33e-4 6.6e-5 0 0l0.22082-0.22082c7.95e-4 -7.96e-4 0.0017-0.0017 0.0025-0.0025 0.77409-0.79232 1.2934-1.7982 1.491-2.8882 0.19788-1.0911 0.0643-2.2165-0.38343-3.231l-0.0029-0.0065c-0.42639-0.99491-1.1343-1.8434-2.0368-2.441-0.90204-0.59736-1.9591-0.91808-3.041-0.92265h-0.0012-0.63766c-2.1741 0-4.2592-0.86365-5.7965-2.401-1.5374-1.5374-2.401-3.6225-2.401-5.7966 0-2.1741 0.86365-4.2592 2.401-5.7965 1.5373-1.5373 3.6224-2.401 5.7965-2.401h0.331c1.1107-0.02745 2.1876-0.38768 3.0913-1.0341 0.90582-0.64781 1.5957-1.5532 1.9801-2.5984 0.0048-0.01313 0.01008-0.02612 0.01571-0.03898 0.4478-1.0145 0.58132-2.1399 0.3835-3.231-0.19762-1.09-0.71688-2.0958-1.491-2.8882l-0.22307-0.22301c-0.76216-0.76136-1.3668-1.6655-1.7793-2.6606-0.41254-0.99518-0.62487-2.0619-0.62487-3.1391 0-1.0773 0.21233-2.144 0.62487-3.1392 0.41254-0.99518 1.0172-1.8993 1.7793-2.6606 0.76123-0.76196 1.6651-1.3664 2.6601-1.7789 0.99518-0.41254 2.0619-0.62487 3.1391-0.62487 1.0773 0 2.144 0.21233 3.1392 0.62487 0.99504 0.41254 1.8991 1.0171 2.6603 1.7791 1.33e-4 6.6e-5 -6.6e-5 -1.33e-4 0 0l0.2234 0.22334c0.79232 0.77403 1.7982 1.2933 2.8882 1.4909 1.0911 0.19788 2.2165 0.0643 3.231-0.38343 0.08452-0.03732 0.17594-0.05661 0.26835-0.05661h0.16089c0.94248-0.4309 1.7464-1.1176 2.3193-1.9831 0.59796-0.90204 0.91815-1.9591 0.92279-3.041v-0.63884c0-2.1741 0.86379-4.2592 2.4011-5.7965z" clip-rule="evenodd" fill="#000" fill-rule="evenodd"/>
 </g>
</svg>
