<?xml version="1.0" encoding="UTF-8"?>
<svg width="26" height="26" fill="none" version="1.1" viewBox="0 0 26 26" xmlns="http://www.w3.org/2000/svg" xmlns:cc="http://creativecommons.org/ns#" xmlns:dc="http://purl.org/dc/elements/1.1/" xmlns:rdf="http://www.w3.org/1999/02/22-rdf-syntax-ns#">
 <path d="m11.5 0c-6.3394 0-11.5 5.1606-11.5 11.5 1.2946e-15 6.3394 5.1606 11.5 11.5 11.5 2.696 0 5.1734-0.93956 7.1367-2.5l5.1191 5.1211 1.4141-1.4141-5.082-5.084c1.8059-2.0319 2.9121-4.6983 2.9121-7.623 0-6.3394-5.1606-11.5-11.5-11.5zm0 2c5.2586 0 9.5 4.2415 9.5 9.5 0 5.2586-4.2414 9.5-9.5 9.5-5.2585 0-9.5-4.2414-9.5-9.5 0-5.2585 4.2415-9.5 9.5-9.5z" fill="#333"/>
</svg>
